<?xml version="1.0" standalone="no"?>
<!DOCTYPE svg PUBLIC "-//W3C//DTD SVG 20010904//EN"
 "http://www.w3.org/TR/2001/REC-SVG-20010904/DTD/svg10.dtd">
<svg version="1.0" xmlns="http://www.w3.org/2000/svg"
 width="217.000000pt" height="217.000000pt" viewBox="0 0 217.000000 217.000000"
 preserveAspectRatio="xMidYMid meet">
<metadata>
Created by potrace 1.11, written by Peter Selinger 2001-2013
</metadata>
<g transform="translate(0.000000,217.000000) scale(0.100000,-0.100000)"
fill="#000000" stroke="none">
<path d="M1004 1663 c-4 -16 -12 -39 -20 -53 -7 -14 -49 -99 -93 -189 -56
-112 -101 -187 -143 -240 -35 -42 -66 -77 -70 -79 -5 -2 -8 -9 -8 -16 0 -7 -9
-21 -20 -31 -11 -10 -17 -22 -14 -26 3 -5 1 -9 -4 -9 -5 0 -23 -15 -40 -32
-16 -18 -46 -50 -66 -71 -20 -21 -36 -42 -36 -47 0 -10 -150 -137 -212 -178
-25 -18 -53 -38 -60 -44 -46 -43 -129 -85 -147 -73 -6 3 -11 1 -11 -6 0 -6 -8
-9 -20 -6 -11 3 -25 -2 -32 -11 -11 -13 -10 -15 10 -10 12 4 20 2 16 -3 -12
-20 46 2 154 58 75 40 88 42 41 7 -19 -14 -33 -30 -31 -35 1 -6 -1 -8 -6 -5
-11 7 -37 -11 -37 -26 0 -7 -11 -15 -25 -18 -15 -3 -20 -9 -14 -13 7 -4 42 9
79 28 37 19 72 32 77 29 5 -3 7 -1 6 6 -2 6 10 18 27 28 16 9 36 24 43 32 12
13 13 13 6 0 -4 -8 10 2 32 24 21 21 53 45 69 52 17 7 26 13 21 14 -5 0 24 35
65 77 41 43 77 76 82 75 4 -1 7 2 7 7 0 9 83 114 117 149 7 7 13 18 13 23 0 5
7 9 15 9 8 0 14 3 13 8 -2 4 0 7 4 7 8 0 48 50 48 61 0 4 -7 -1 -16 -12 -15
-18 -15 -17 -1 6 9 14 21 24 29 22 7 -2 10 0 6 4 -4 4 6 22 23 42 17 19 28 41
25 49 -3 8 -1 11 4 8 5 -3 17 10 27 28 44 84 66 121 85 141 40 44 88 176 63
176 -8 0 -19 16 -25 35 -6 19 -20 40 -31 45 -16 9 -20 6 -25 -17z"/>
<path d="M1103 1459 c5 -60 40 -124 140 -257 118 -157 179 -226 335 -380 98
-96 137 -130 143 -120 7 10 9 9 9 -4 0 -9 5 -20 12 -24 7 -5 8 -3 3 6 -4 7 6
2 24 -11 17 -12 31 -27 31 -32 0 -9 38 -47 48 -47 2 0 1 6 -4 13 -5 7 -2 5 7
-5 9 -9 19 -15 21 -12 3 2 20 -6 39 -19 75 -50 129 -77 156 -77 l28 0 -32 20
c-38 23 -43 33 -10 21 22 -9 79 -15 102 -12 6 1 -13 14 -41 29 -52 27 -92 57
-164 122 -22 19 -61 53 -87 75 -109 93 -437 431 -523 540 -36 45 -36 45 -124
138 -35 37 -69 67 -74 67 -6 0 -18 3 -26 6 -14 5 -16 -1 -13 -37z m111 -65 c5
-14 4 -15 -9 -4 -17 14 -19 20 -6 20 5 0 12 -7 15 -16z m115 -134 c18 -19 38
-48 47 -65 8 -16 9 -21 2 -11 -7 10 -29 36 -48 57 -51 57 -55 62 -75 94 -16
27 -15 26 12 -5 17 -19 45 -51 62 -70z m91 -110 c0 -5 -5 -10 -11 -10 -5 0 -7
5 -4 10 3 6 8 10 11 10 2 0 4 -4 4 -10z m295 -410 c10 -11 16 -20 13 -20 -3 0
-13 9 -23 20 -10 11 -16 20 -13 20 3 0 13 -9 23 -20z m315 -182 c0 -13 -13 -9
-43 10 -15 10 -25 21 -21 24 7 7 64 -24 64 -34z"/>
<path d="M610 788 c0 -3 -29 -69 -64 -147 -57 -124 -63 -141 -46 -141 13 0 25
12 34 35 15 35 15 35 79 35 63 0 63 0 80 -35 9 -19 23 -35 32 -35 8 0 15 3 15
6 0 7 -120 276 -126 283 -2 2 -4 2 -4 -1z m43 -172 c1 -5 -17 -11 -41 -12 -48
-4 -48 -4 -15 74 l15 35 20 -44 c11 -24 20 -48 21 -53z"/>
<path d="M768 773 c-2 -4 -3 -66 -3 -138 1 -114 3 -130 18 -133 15 -3 17 5 17
57 0 34 4 61 8 61 4 0 16 -15 27 -32 10 -18 27 -42 37 -52 10 -11 18 -23 18
-28 0 -4 9 -8 20 -8 27 0 26 5 -15 60 -37 51 -43 70 -22 70 15 0 35 33 42 69
7 38 -40 77 -97 80 -25 1 -48 -2 -50 -6z m100 -45 c6 -6 12 -21 12 -33 0 -27
-15 -40 -52 -44 -25 -2 -27 0 -26 41 0 24 2 47 5 51 5 9 42 0 61 -15z"/>
<path d="M960 642 l0 -138 76 -2 c67 -2 75 0 72 16 -2 13 -14 17 -48 18 -25 1
-50 2 -55 3 -6 0 -10 22 -10 49 1 47 1 47 35 48 19 1 46 2 58 3 46 2 16 26
-39 31 -54 5 -54 5 -54 40 l0 34 55 1 c43 1 56 4 58 18 3 15 -6 17 -72 17
l-76 0 0 -138z"/>
<path d="M1191 643 c-33 -75 -59 -138 -56 -141 10 -11 38 10 48 38 11 29 14
30 74 30 62 0 64 0 80 -35 10 -21 24 -35 35 -35 20 0 19 3 -27 100 -17 36 -42
91 -56 122 -13 32 -27 58 -30 58 -3 0 -34 -61 -68 -137z m80 47 c3 -19 5 -25
17 -48 17 -30 9 -40 -33 -40 -40 0 -43 10 -18 63 16 34 32 45 34 25z"/>
<path d="M1465 648 c-33 -72 -61 -134 -63 -138 -1 -3 6 -6 16 -7 12 -1 24 10
33 30 13 30 17 32 75 35 61 3 62 3 82 -33 12 -19 29 -35 37 -35 9 0 15 4 13 9
-18 47 -124 271 -128 271 -3 0 -33 -59 -65 -132z m91 7 c11 -25 18 -46 15 -46
-30 -6 -81 -5 -81 2 0 15 32 89 39 89 3 0 15 -20 27 -45z"/>
</g>
</svg>
